<svg width="437" height="351" viewBox="0 0 437 351" fill="none" xmlns="http://www.w3.org/2000/svg">
<path d="M412.915 382.585C420.219 378.189 426.2 372.01 430.26 364.667C434.319 357.325 436.313 349.077 436.041 340.752C436.514 331.321 434.817 321.906 431.072 313.188C427.326 304.47 421.627 296.667 414.385 290.345C416.482 277.38 417.536 264.278 417.54 251.155C417.641 201.897 402.655 153.717 374.478 112.71C377.812 109.333 380.157 105.156 381.271 100.609C382.385 96.0629 382.227 91.311 380.815 86.843C376.364 75.2051 368.976 64.8311 359.325 56.6667C353.692 51.2102 303.673 3.98357 281.62 25.3077C280.495 26.3988 279.491 27.5999 278.622 28.8916C241.561 10.1022 200.352 0.286238 158.521 0.283203C121.915 0.618501 85.7794 8.30332 52.3962 22.8522C19.0131 37.401 -10.8919 58.4976 -35.4293 84.8092C-39.944 81.4372 -45.3711 79.405 -51.0537 78.9585C-60.4732 78.6641 -69.8146 80.7015 -78.1947 84.8781C-86.5747 89.0547 -93.7164 95.2324 -98.9445 102.827C-115.355 126.678 -94.3192 156.075 -83.0148 171.817C-91.82 193.693 -97.6626 216.581 -100.397 239.911C-109.749 259.219 -119 280.722 -119 295.954C-119 313.327 -113.709 334.696 -98.8612 342.544C-95.6603 344.216 -92.1302 345.213 -88.503 345.47C-84.8758 345.726 -81.2336 345.236 -77.8159 344.032C-65.4549 375.174 -46.6921 403.561 -22.6654 427.471C1.36135 451.38 30.1515 470.315 61.9594 483.125C93.7672 495.936 127.93 502.356 162.376 501.997C196.823 501.638 230.835 494.506 262.35 481.035C267.448 486.213 276.726 490.156 293.349 484.672C306.654 479.704 319.15 472.905 330.454 464.486C342.107 456.824 352.531 447.541 361.388 436.935C372.942 421.82 369.936 411.382 365.375 405.289C364.931 404.693 364.452 404.122 363.941 403.578C367.716 398.444 371.573 392.755 374.968 387.63C381.31 389.373 387.956 389.824 394.487 388.956C401.018 388.088 407.292 385.919 412.915 382.585ZM363.497 371.762L362.23 373.679C356.452 382.798 350.18 391.614 343.442 400.093C342.483 401.209 341.818 402.535 341.506 403.956C341.193 405.377 341.242 406.85 341.648 408.248C342.054 409.646 342.805 410.928 343.836 411.983C344.868 413.038 346.148 413.834 347.568 414.303C348.639 414.535 349.621 415.057 350.398 415.808C352.249 418.326 347.901 424.463 346.513 426.282C338.759 435.381 329.7 443.358 319.612 449.971C309.773 457.307 298.925 463.278 287.383 467.712C281.351 469.727 276.67 469.951 275.477 468.366C275.275 467.97 275.123 467.551 275.024 467.12C274.664 465.853 274.021 464.677 273.14 463.678C272.259 462.678 271.161 461.878 269.925 461.335C268.689 460.792 267.345 460.52 265.988 460.536C264.631 460.552 263.294 460.858 262.073 461.431C229.755 476.435 194.359 484.187 158.521 484.108C58.4837 484.108 -28.8798 423.128 -64.0509 328.746C-64.6973 327.015 -65.8788 325.518 -67.4348 324.46C-68.9907 323.402 -70.8454 322.834 -72.7466 322.833C-74.5123 322.837 -76.2409 323.325 -77.7327 324.24C-82.9871 327.501 -87.1036 328.37 -89.9806 326.856C-95.975 323.675 -100.499 310.388 -100.499 295.954C-100.499 283.589 -90.4431 261.531 -82.9223 246.021C-82.3798 244.946 -82.0652 243.776 -81.9972 242.581C-79.4549 220.078 -73.8176 198.006 -65.235 176.951L-63.9862 173.421C-63.5216 172.109 -63.3776 170.712 -63.5654 169.337C-63.7532 167.963 -64.2677 166.649 -65.0685 165.5L-67.8437 161.657C-76.6411 149.364 -93.0148 126.481 -83.5699 112.772C-80.2042 107.864 -75.6388 103.836 -70.2793 101.048C-64.9198 98.2593 -58.9322 96.7961 -52.8483 96.7883C-51.0168 96.7626 -49.2201 97.2744 -47.6945 98.2563C-46.1689 99.2381 -44.9858 100.644 -44.3007 102.29C-43.6876 103.713 -42.7054 104.959 -41.4492 105.908C-40.193 106.856 -38.7053 107.474 -37.1302 107.702C-35.555 107.93 -33.9458 107.76 -32.4583 107.209C-30.9708 106.658 -29.6553 105.744 -28.6393 104.556C-5.80173 77.848 22.7753 56.2851 55.0996 41.371C87.424 26.4569 122.718 18.5504 158.521 18.2026C200.831 18.1992 242.392 29.0168 279.002 49.5616C280.345 50.3214 281.865 50.7407 283.42 50.7807C284.975 50.8207 286.516 50.4802 287.899 49.7907C289.282 49.1011 290.464 48.0848 291.334 46.8358C292.204 45.5867 292.735 44.1452 292.878 42.6447C292.928 40.9355 293.581 39.2943 294.728 37.9946C298.946 35.5755 321.768 45.5566 346.31 69.3536C353.596 75.4764 359.332 83.1404 363.072 91.7529C363.683 93.4529 363.731 95.2951 363.211 97.023C362.69 98.751 361.626 100.279 360.167 101.394C359.656 101.88 359.049 102.26 358.382 102.514C357.095 103.029 355.945 103.819 355.017 104.824C354.09 105.83 353.408 107.025 353.024 108.322C352.64 109.618 352.563 110.981 352.799 112.311C353.034 113.64 353.577 114.9 354.385 115.998C383.524 155.406 399.144 202.684 399.039 251.155C399.035 265.016 397.769 278.85 395.255 292.495C394.945 294.16 395.128 295.876 395.783 297.444C396.438 299.012 397.538 300.368 398.955 301.357C405.191 305.909 410.156 311.895 413.401 318.774C416.646 325.653 418.068 333.207 417.54 340.752C417.842 346.001 416.681 351.232 414.178 355.897C411.674 360.562 407.922 364.488 403.312 367.264C399.18 369.736 394.47 371.158 389.619 371.399C384.768 371.641 379.933 370.693 375.56 368.644C373.511 367.611 371.136 367.358 368.904 367.935C366.671 368.512 364.743 369.877 363.497 371.762Z" fill="#068DC2"/>
<path d="M383.247 343.377L396.328 356.046C398.914 353.678 400.887 350.752 402.086 347.506C403.285 344.26 403.677 340.786 403.229 337.365C401.314 322.286 383.95 308.488 373.562 301.527C378.021 288.14 380.373 274.18 380.537 260.115H362.035C361.928 274.101 359.103 287.943 353.71 300.917C352.68 302.932 352.47 305.248 353.122 307.405C353.773 309.563 355.237 311.404 357.225 312.565C367.752 318.684 383.793 331.479 384.82 339.525C384.932 340.244 384.846 340.98 384.57 341.656C384.294 342.333 383.837 342.927 383.247 343.377Z" fill="#068DC2"/>
<path d="M75.263 260.117C91.7296 260.117 107.826 255.388 121.518 246.527C135.209 237.667 145.88 225.073 152.182 210.338C158.483 195.604 160.132 179.39 156.92 163.748C153.707 148.106 145.778 133.738 134.134 122.46C122.49 111.183 107.656 103.503 91.5055 100.392C75.3554 97.2803 58.6154 98.8772 43.4023 104.98C28.1892 111.084 15.1863 121.419 6.03804 134.68C-3.11027 147.941 -7.99316 163.531 -7.99316 179.48C-7.96868 200.859 0.810791 221.356 16.4191 236.473C32.0273 251.59 53.1896 260.093 75.263 260.117ZM75.263 116.762C88.0703 116.762 100.59 120.44 111.239 127.332C121.888 134.223 130.188 144.018 135.089 155.479C139.99 166.939 141.272 179.549 138.774 191.715C136.275 203.882 130.108 215.057 121.052 223.828C111.996 232.599 100.457 238.573 87.8961 240.993C75.3349 243.413 62.3148 242.171 50.4825 237.424C38.6501 232.677 28.5367 224.638 21.4214 214.324C14.306 204.01 10.5082 191.884 10.5082 179.48C10.5278 162.852 17.3565 146.91 29.4961 135.152C41.6357 123.395 58.095 116.781 75.263 116.762Z" fill="#068DC2"/>
<path d="M-19.8958 320.263C-30.7561 330.781 -27.9439 349.991 -13.485 363.995C-6.11657 371.607 4.03194 376.128 14.7943 376.592C17.9046 376.672 21 376.148 23.8979 375.051C26.7958 373.954 29.4376 372.306 31.6676 370.204C42.5279 359.685 39.7157 340.476 25.2568 326.472C10.798 312.468 -9.04471 309.744 -19.8958 320.263ZM18.5871 357.535C16.0801 359.963 7.23649 358.709 -0.404575 351.326C-8.04564 343.943 -9.32224 335.351 -6.8153 332.932C-5.75767 332.098 -4.40956 331.691 -3.05027 331.794C2.79395 332.303 8.22784 334.919 12.1764 339.123C19.8082 346.542 21.094 355.089 18.5871 357.535Z" fill="#068DC2"/>
<path d="M177.021 385.551C177.021 376.69 174.308 368.029 169.226 360.662C164.144 353.295 156.92 347.553 148.468 344.162C140.016 340.771 130.716 339.884 121.744 341.613C112.772 343.341 104.53 347.608 98.0615 353.873C91.5928 360.138 87.1876 368.121 85.4029 376.811C83.6182 385.501 84.5342 394.508 88.035 402.694C91.5358 410.88 97.4642 417.877 105.071 422.799C112.677 427.722 121.62 430.349 130.768 430.349C143.03 430.335 154.786 425.61 163.457 417.212C172.129 408.814 177.006 397.427 177.021 385.551ZM103.016 385.551C103.016 380.234 104.643 375.038 107.693 370.617C110.742 366.197 115.076 362.752 120.147 360.717C125.218 358.683 130.798 358.151 136.182 359.188C141.565 360.225 146.51 362.785 150.391 366.544C154.272 370.303 156.916 375.093 157.986 380.307C159.057 385.521 158.508 390.925 156.407 395.837C154.307 400.748 150.75 404.946 146.186 407.9C141.622 410.853 136.256 412.43 130.768 412.43C123.407 412.43 116.348 409.598 111.144 404.557C105.939 399.516 103.016 392.679 103.016 385.551Z" fill="#068DC2"/>
<path d="M314.755 170.518C318.575 170.644 322.383 170.028 325.954 168.708C329.525 167.388 332.788 165.39 335.551 162.831C349.889 148.934 344.311 121.777 322.859 101.009C301.406 80.2401 273.349 74.8284 259.029 88.7159C244.709 102.603 250.268 129.769 271.721 150.538C282.881 162.308 298.292 169.463 314.755 170.518ZM272.091 101.367C274.231 99.5692 277.016 98.6613 279.843 98.8404C291.361 100.035 302.02 105.302 309.778 113.633C324.191 127.592 328.363 144.41 322.47 150.135C316.577 155.86 299.195 151.792 284.783 137.842C270.37 123.892 266.198 107.039 272.091 101.322V101.367Z" fill="#068DC2"/>
<path d="M220.499 63.3342L226.123 46.3107C197.521 37.6358 167.417 34.5819 137.58 37.3283C107.742 40.0746 78.7711 48.5659 52.3677 62.3038L61.2298 78.037C85.4302 65.4409 111.984 57.652 139.333 55.1273C166.683 52.6025 194.278 55.3927 220.499 63.3342Z" fill="#068DC2"/>
<path d="M15.5327 81.8501L34.0247 72.8949L42.2948 88.9149L23.8028 97.87L15.5327 81.8501Z" fill="#068DC2"/>
<path d="M362.036 224.277H380.537V242.197H362.036V224.277Z" fill="#068DC2"/>
<path d="M343.534 331.792H362.035V349.712H343.534V331.792Z" fill="#068DC2"/>
<path d="M134.099 253.227L145.94 267.007C163.295 253.155 176.255 234.836 183.327 214.16C190.399 193.484 191.295 171.293 185.912 150.146L168.123 155.038C172.528 172.848 171.673 191.498 165.657 208.861C159.641 226.223 148.705 241.597 134.099 253.227Z" fill="#068DC2"/>
<path d="M163.148 339.571L172.324 324.017C134.776 303.23 105.433 312.71 87.44 324.339C75.5585 332.168 65.5208 342.342 57.9858 354.193L74.0358 363.099C75.3771 360.913 107.412 308.723 163.148 339.571Z" fill="#068DC2"/>
<path d="M347.004 172.479C307.8 202.835 259.595 157.176 257.56 155.214L244.488 167.892C259.021 181.959 287.578 200.622 317.569 200.622C332.534 200.682 347.052 195.678 358.614 186.474L347.004 172.479Z" fill="#068DC2"/>
<path d="M233.452 372.587L250.01 380.597C255.991 367.737 266.628 357.446 279.912 351.668C293.195 345.889 308.204 345.025 322.101 349.238L327.91 332.214C309.794 326.543 290.157 327.523 272.738 334.968C255.32 342.412 241.337 355.802 233.452 372.587Z" fill="#068DC2"/>
<path d="M235.166 253.783L262.916 226.906L275.997 239.575L248.246 266.452L235.166 253.783Z" fill="#068DC2"/>
<path d="M244.417 289.625L272.168 262.748L285.248 275.417L257.498 302.294L244.417 289.625Z" fill="#068DC2"/>
<path d="M-23.8262 266.436L-10.7457 253.767L7.75011 271.681L-5.33036 284.35L-23.8262 266.436Z" fill="#068DC2"/>
<path d="M161.188 92.5215L179.684 74.6075L192.764 87.2765L174.268 105.191L161.188 92.5215Z" fill="#068DC2"/>
<path d="M188.931 101.482L207.426 83.5684L220.507 96.2374L202.011 114.151L188.931 101.482Z" fill="#068DC2"/>
</svg>
