<svg width="161" height="161" viewBox="0 0 161 161" fill="none" xmlns="http://www.w3.org/2000/svg">
<path d="M148.161 98.8649C146.972 99.2396 146.295 100.459 146.649 101.587C150.111 112.632 143.465 124.601 131.832 128.267C130.643 128.642 129.966 129.861 130.32 130.989C130.674 132.118 131.925 132.729 133.114 132.355C147.12 127.94 155.123 113.529 150.954 100.23C150.6 99.1016 149.35 98.4902 148.161 98.8649Z" fill="#068DC2"/>
<path d="M130.807 124.329C140.54 121.261 146.102 111.246 143.204 102.005C142.851 100.876 141.6 100.265 140.411 100.639C139.222 101.014 138.545 102.233 138.899 103.362C141.09 110.349 136.885 117.921 129.525 120.241C128.336 120.616 127.659 121.835 128.013 122.963C128.367 124.092 129.618 124.703 130.807 124.329Z" fill="#068DC2"/>
<path d="M128.5 116.303C133.96 114.582 137.08 108.964 135.455 103.78C135.101 102.651 133.85 102.04 132.661 102.415C131.472 102.789 130.795 104.008 131.149 105.137C132.068 108.067 130.304 111.243 127.218 112.215C126.029 112.59 125.353 113.809 125.706 114.938C126.06 116.066 127.311 116.678 128.5 116.303Z" fill="#068DC2"/>
<path d="M124.849 102.295C125.395 102.562 126.008 102.588 126.559 102.414C127.11 102.24 127.598 101.867 127.894 101.336C128.484 100.272 128.078 98.9781 126.987 98.4449L126.006 97.9653L133.917 83.7202C134.201 83.2097 134.265 82.6183 134.095 82.0763C133.925 81.5342 133.535 81.0857 133.011 80.8298C125.778 77.2944 117.251 78.2806 110.913 82.6797L106.478 80.5121L110.282 73.6625C110.872 72.5993 110.467 71.3051 109.376 70.7721L91.4036 61.9875L95.2449 55.0708L104.068 59.3833C104.613 59.6499 105.227 59.6759 105.778 59.5023C106.328 59.3287 106.817 58.9556 107.112 58.4239L126.784 23.0024C127.067 22.4919 127.131 21.9005 126.961 21.3584C126.791 20.8164 126.402 20.3679 125.878 20.112L104.281 9.5553C103.758 9.29905 103.142 9.25637 102.572 9.43631C102.001 9.61624 101.521 10.0041 101.237 10.5148L81.5655 45.9363C81.2818 46.4467 81.2181 47.0382 81.388 47.5802C81.5579 48.1223 81.9477 48.5708 82.4717 48.8267L91.2946 53.1392L87.4534 60.056L73.8979 53.4302C68.5181 50.8008 61.9275 52.3998 58.226 56.9275L51.8968 53.8341C50.8059 53.3008 49.4428 53.7304 48.8526 54.7935L41.9448 67.2321C41.661 67.7425 41.5973 68.3339 41.7672 68.876C41.9372 69.418 42.3269 69.8666 42.8509 70.1224L49.1779 73.2148C48.3917 75.5327 48.3473 77.9989 49.0814 80.3404C50.0328 83.3752 52.172 85.8356 55.1049 87.2694L68.6604 93.8952L64.8191 100.812L55.9962 96.4994C54.9052 95.9661 53.5421 96.3957 52.952 97.4589L33.2801 132.881C32.6896 133.944 33.0954 135.238 34.1863 135.771L55.7829 146.327C56.3282 146.594 56.9419 146.62 57.4927 146.446C58.0435 146.273 58.5321 145.9 58.8271 145.368L78.4988 109.946C79.0892 108.883 78.6835 107.589 77.5926 107.056L68.7697 102.743L72.6109 95.8266L90.5831 104.611C91.1069 104.868 91.722 104.91 92.2929 104.73C92.8638 104.55 93.344 104.162 93.6273 103.652L97.4321 96.8008L101.866 98.968C101.654 106.363 105.679 113.485 112.912 117.021C113.458 117.288 114.071 117.313 114.622 117.14C115.173 116.966 115.662 116.593 115.957 116.061L123.868 101.816L124.849 102.295ZM110.778 42.7782L93.1324 34.153L97.5716 26.1597L115.218 34.7848L110.778 42.7782ZM104.119 14.3709L121.765 22.996L117.355 30.9353L99.7095 22.3102L104.119 14.3709ZM90.9942 38.0032L108.64 46.6284L104.231 54.5677L86.585 45.9425L90.9942 38.0032ZM49.2859 113.104L66.9318 121.729L62.4926 129.723L44.8467 121.098L49.2859 113.104ZM55.9457 141.512L38.2998 132.887L42.7089 124.947L60.3548 133.572L55.9457 141.512ZM69.0701 117.879L51.4242 109.254L55.8334 101.315L73.4793 109.94L69.0701 117.879ZM74.1054 58.427L97.8076 70.0124L83.2909 96.1515L59.5888 84.5662L74.1054 58.427ZM65.6764 56.8608C67.0788 56.4188 68.5949 56.3416 70.0538 56.6783L55.7386 82.4548C54.6335 81.5505 53.8187 80.3601 53.3872 78.9836C52.7781 77.0408 53.0023 74.9632 54.0185 73.1334L60.9263 60.6948C61.9752 58.8062 63.7142 57.4792 65.6764 56.8608ZM51.734 58.6496L55.9064 60.689L53.5216 64.9832L51.1368 69.2773L46.9641 67.238L51.734 58.6496ZM90.7459 99.7957L87.2414 98.0827L101.758 71.9436L105.263 73.6565L90.7459 99.7957ZM99.5707 92.9507L104.34 84.3624L107.312 85.8149C106.201 87.0237 105.216 88.3696 104.394 89.8492C103.572 91.3284 102.961 92.857 102.542 94.403L99.5707 92.9507ZM113.147 112.075C106.541 107.648 104.344 98.9827 108.344 91.7803C110.526 87.8528 114.143 85.093 118.222 83.8072C121.624 82.7351 125.346 82.6879 128.826 83.8439L113.147 112.075Z" fill="#068DC2"/>
</svg>
